<mxfile host="app.diagrams.net" modified="2023-09-21T12:27:50.190Z" agent="Mozilla/5.0 (Windows NT 10.0; Win64; x64) AppleWebKit/537.36 (KHTML, like Gecko) Chrome/116.0.0.0 Safari/537.36 OPR/102.0.0.0" etag="MMWuYESSBjJ3-whf7jKv" version="21.7.4" type="device">
  <diagram name="Page-1" id="YoZcaFVjCW5Mtdl0JUES">
    <mxGraphModel dx="1920" dy="503" grid="1" gridSize="10" guides="1" tooltips="1" connect="1" arrows="1" fold="1" page="1" pageScale="1" pageWidth="827" pageHeight="1169" math="0" shadow="0">
      <root>
        <mxCell id="0" />
        <mxCell id="1" parent="0" />
        <mxCell id="rXgHJ478rdaFjFrcBP5B-27" value="" style="rounded=0;whiteSpace=wrap;html=1;" parent="1" vertex="1">
          <mxGeometry x="-8.5" y="90" width="818.5" height="500" as="geometry" />
        </mxCell>
        <mxCell id="rXgHJ478rdaFjFrcBP5B-1" value="&lt;div&gt;Письменник-Користувач&lt;/div&gt;" style="shape=umlActor;verticalLabelPosition=bottom;verticalAlign=top;html=1;outlineConnect=0;" parent="1" vertex="1">
          <mxGeometry x="50" y="330" width="30" height="60" as="geometry" />
        </mxCell>
        <mxCell id="rXgHJ478rdaFjFrcBP5B-2" value="" style="rounded=0;whiteSpace=wrap;html=1;" parent="1" vertex="1">
          <mxGeometry x="174" y="120" width="466" height="440" as="geometry" />
        </mxCell>
        <mxCell id="rXgHJ478rdaFjFrcBP5B-5" value="Збільшення поваги від оточуючих" style="ellipse;whiteSpace=wrap;html=1;" parent="1" vertex="1">
          <mxGeometry x="370" y="500" width="180" height="50" as="geometry" />
        </mxCell>
        <mxCell id="rXgHJ478rdaFjFrcBP5B-6" value="Поліпшення якості води" style="ellipse;whiteSpace=wrap;html=1;" parent="1" vertex="1">
          <mxGeometry x="220" y="350" width="180" height="50" as="geometry" />
        </mxCell>
        <mxCell id="rXgHJ478rdaFjFrcBP5B-7" value="Збільшення часу для письменництва" style="ellipse;whiteSpace=wrap;html=1;" parent="1" vertex="1">
          <mxGeometry x="370" y="410" width="180" height="50" as="geometry" />
        </mxCell>
        <mxCell id="rXgHJ478rdaFjFrcBP5B-9" value="" style="endArrow=classic;html=1;rounded=0;entryX=0;entryY=0.5;entryDx=0;entryDy=0;" parent="1" source="rXgHJ478rdaFjFrcBP5B-1" target="rXgHJ478rdaFjFrcBP5B-6" edge="1">
          <mxGeometry width="50" height="50" relative="1" as="geometry">
            <mxPoint x="270" y="460" as="sourcePoint" />
            <mxPoint x="320" y="410" as="targetPoint" />
          </mxGeometry>
        </mxCell>
        <mxCell id="rXgHJ478rdaFjFrcBP5B-10" value="" style="endArrow=classic;html=1;rounded=0;entryX=0;entryY=0.5;entryDx=0;entryDy=0;" parent="1" source="rXgHJ478rdaFjFrcBP5B-1" target="rXgHJ478rdaFjFrcBP5B-7" edge="1">
          <mxGeometry width="50" height="50" relative="1" as="geometry">
            <mxPoint x="270" y="460" as="sourcePoint" />
            <mxPoint x="320" y="410" as="targetPoint" />
          </mxGeometry>
        </mxCell>
        <mxCell id="rXgHJ478rdaFjFrcBP5B-11" value="" style="endArrow=classic;html=1;rounded=0;entryX=0;entryY=0.5;entryDx=0;entryDy=0;" parent="1" source="rXgHJ478rdaFjFrcBP5B-1" target="rXgHJ478rdaFjFrcBP5B-5" edge="1">
          <mxGeometry width="50" height="50" relative="1" as="geometry">
            <mxPoint x="70" y="380" as="sourcePoint" />
            <mxPoint x="320" y="410" as="targetPoint" />
          </mxGeometry>
        </mxCell>
        <mxCell id="rXgHJ478rdaFjFrcBP5B-12" value="Аналіз води на якість" style="ellipse;whiteSpace=wrap;html=1;" parent="1" vertex="1">
          <mxGeometry x="444" y="350" width="180" height="50" as="geometry" />
        </mxCell>
        <mxCell id="rXgHJ478rdaFjFrcBP5B-13" value="" style="endArrow=none;dashed=1;html=1;rounded=0;entryX=1;entryY=0.5;entryDx=0;entryDy=0;exitX=0;exitY=0.5;exitDx=0;exitDy=0;startArrow=classic;startFill=1;endFill=0;" parent="1" source="rXgHJ478rdaFjFrcBP5B-12" target="rXgHJ478rdaFjFrcBP5B-6" edge="1">
          <mxGeometry width="50" height="50" relative="1" as="geometry">
            <mxPoint x="270" y="550" as="sourcePoint" />
            <mxPoint x="320" y="500" as="targetPoint" />
          </mxGeometry>
        </mxCell>
        <mxCell id="rXgHJ478rdaFjFrcBP5B-14" value="Обілк якості води" style="ellipse;whiteSpace=wrap;html=1;" parent="1" vertex="1">
          <mxGeometry x="390" y="170" width="180" height="50" as="geometry" />
        </mxCell>
        <mxCell id="rXgHJ478rdaFjFrcBP5B-15" value="" style="endArrow=classic;dashed=1;html=1;rounded=0;endFill=1;" parent="1" source="rXgHJ478rdaFjFrcBP5B-12" target="rXgHJ478rdaFjFrcBP5B-14" edge="1">
          <mxGeometry width="50" height="50" relative="1" as="geometry">
            <mxPoint x="450" y="350" as="sourcePoint" />
            <mxPoint x="500" y="300" as="targetPoint" />
          </mxGeometry>
        </mxCell>
        <mxCell id="rXgHJ478rdaFjFrcBP5B-16" value="include" style="text;html=1;align=center;verticalAlign=middle;resizable=0;points=[];autosize=1;strokeColor=none;fillColor=none;" parent="1" vertex="1">
          <mxGeometry x="390" y="345" width="60" height="30" as="geometry" />
        </mxCell>
        <mxCell id="rXgHJ478rdaFjFrcBP5B-18" value="&lt;div&gt;include&lt;/div&gt;" style="text;html=1;align=center;verticalAlign=middle;resizable=0;points=[];autosize=1;strokeColor=none;fillColor=none;rotation=70;" parent="1" vertex="1">
          <mxGeometry x="480" y="250" width="60" height="30" as="geometry" />
        </mxCell>
        <mxCell id="rXgHJ478rdaFjFrcBP5B-19" value="&lt;div&gt;Сервіс для якості води&lt;/div&gt;" style="shape=umlActor;verticalLabelPosition=bottom;verticalAlign=top;html=1;outlineConnect=0;" parent="1" vertex="1">
          <mxGeometry x="730" y="190" width="30" height="60" as="geometry" />
        </mxCell>
        <mxCell id="rXgHJ478rdaFjFrcBP5B-22" value="" style="endArrow=classic;html=1;rounded=0;" parent="1" source="rXgHJ478rdaFjFrcBP5B-19" target="rXgHJ478rdaFjFrcBP5B-12" edge="1">
          <mxGeometry width="50" height="50" relative="1" as="geometry">
            <mxPoint x="460" y="390" as="sourcePoint" />
            <mxPoint x="510" y="340" as="targetPoint" />
          </mxGeometry>
        </mxCell>
        <mxCell id="rXgHJ478rdaFjFrcBP5B-23" value="" style="endArrow=classic;html=1;rounded=0;" parent="1" source="rXgHJ478rdaFjFrcBP5B-1" target="rXgHJ478rdaFjFrcBP5B-14" edge="1">
          <mxGeometry width="50" height="50" relative="1" as="geometry">
            <mxPoint x="460" y="390" as="sourcePoint" />
            <mxPoint x="510" y="340" as="targetPoint" />
          </mxGeometry>
        </mxCell>
        <mxCell id="rXgHJ478rdaFjFrcBP5B-24" value="" style="endArrow=classic;html=1;rounded=0;" parent="1" source="rXgHJ478rdaFjFrcBP5B-19" target="rXgHJ478rdaFjFrcBP5B-14" edge="1">
          <mxGeometry width="50" height="50" relative="1" as="geometry">
            <mxPoint x="460" y="390" as="sourcePoint" />
            <mxPoint x="510" y="340" as="targetPoint" />
          </mxGeometry>
        </mxCell>
        <mxCell id="H0OnCD-_SHfTeDWjDdM2-1" value="Менеджер часу та &lt;br&gt;психолог" style="shape=umlActor;verticalLabelPosition=bottom;verticalAlign=top;html=1;outlineConnect=0;" vertex="1" parent="1">
          <mxGeometry x="720" y="360" width="30" height="60" as="geometry" />
        </mxCell>
        <mxCell id="H0OnCD-_SHfTeDWjDdM2-5" value="" style="endArrow=classic;html=1;rounded=0;exitX=0.5;exitY=0.5;exitDx=0;exitDy=0;exitPerimeter=0;entryX=1;entryY=0.5;entryDx=0;entryDy=0;" edge="1" parent="1" source="H0OnCD-_SHfTeDWjDdM2-1" target="rXgHJ478rdaFjFrcBP5B-7">
          <mxGeometry width="50" height="50" relative="1" as="geometry">
            <mxPoint x="570" y="470" as="sourcePoint" />
            <mxPoint x="620" y="420" as="targetPoint" />
          </mxGeometry>
        </mxCell>
        <mxCell id="H0OnCD-_SHfTeDWjDdM2-6" value="" style="endArrow=classic;html=1;rounded=0;entryX=1;entryY=0.5;entryDx=0;entryDy=0;" edge="1" parent="1" source="H0OnCD-_SHfTeDWjDdM2-1" target="rXgHJ478rdaFjFrcBP5B-5">
          <mxGeometry width="50" height="50" relative="1" as="geometry">
            <mxPoint x="745" y="400" as="sourcePoint" />
            <mxPoint x="560" y="445" as="targetPoint" />
          </mxGeometry>
        </mxCell>
      </root>
    </mxGraphModel>
  </diagram>
</mxfile>
